<?xml version="1.0" encoding="UTF-8"?>
<svg width="467px" height="147px" viewBox="0 0 467 147" version="1.1" xmlns="http://www.w3.org/2000/svg" xmlns:xlink="http://www.w3.org/1999/xlink">
    <!-- Generator: Sketch 50.2 (55047) - http://www.bohemiancoding.com/sketch -->
    <title>Clement.logo</title>
    <desc>Created with Sketch.</desc>
    <defs></defs>
    <g id="Page-1" stroke="none" stroke-width="1" fill="none" fill-rule="evenodd">
        <g id="Clement.logo" fill-rule="nonzero">
            <g id="Paris" transform="translate(158.000000, 121.000000)">
                <g id="Group-2">
                    <path d="M0.0172536111,24.3664122 L4.48593887,24.3664122 L4.48593887,14.8895589 L12.8539402,14.8895589 C16.7532564,14.8895589 23.2061069,14.8895589 23.2061069,7.50019967 C23.2061069,0.110840389 16.8050172,0 12.8539402,0 L0,0 L0.0172536111,24.3664122 Z" id="Path" fill="#000000"></path>
                    <path d="M4.64122137,10.4427481 L4.64122137,4.64122137 L14.5870991,4.64122137 C17.3212978,4.64122137 19.7251908,4.83248049 19.7251908,7.52604647 C19.7251908,10.2196125 17.3212978,10.4427481 14.5870991,10.4427481 L4.64122137,10.4427481 Z" id="Path" fill="#FFFFFF"></path>
                    <polygon id="Path" fill="#000000" points="30.1679389 24.3664122 35.177362 24.3664122 37.7453695 18.8327834 51.6704803 18.8327834 54.2023186 24.3664122 59.1755725 24.3664122 47.4567779 0 42.0314101 0"></polygon>
                    <polygon id="Path" fill="#FFFFFF" points="39.4503817 15.0839695 44.0916031 4.64122137 48.7328244 15.0839695"></polygon>
                    <path d="M69.6183206,24.3664122 L74.4103397,24.3664122 L74.4103397,14.7079851 L82.0591397,14.7079851 L89.2471685,24.3113262 L95.1450382,24.3113262 L87.6068234,14.3774685 C89.4775153,14.3690024 91.2644151,13.60342 92.5573352,12.2564628 C93.8502552,10.9095055 94.5381448,9.09686562 94.463097,7.23463934 C94.463097,1.30370404 90.2977265,0 84.4551492,0 L69.7104748,0 L69.6183206,24.3664122 Z" id="Path" fill="#000000"></path>
                    <path d="M75.4198473,10.4427481 L75.4198473,2.32061069 L84.6378287,2.32061069 C88.5181252,2.32061069 90.5038168,2.98495439 90.5038168,6.32810329 C90.5038168,9.67125219 88.5181252,10.3355959 84.6378287,10.3355959 L75.4198473,10.4427481 Z" id="Path" fill="#FFFFFF"></path>
                    <polygon id="Path" fill="#000000" points="109.068702 0 113.709924 0 113.709924 24.3664122 109.068702 24.3664122"></polygon>
                    <path d="M147.098724,7.9563795 C146.33347,5.81994427 144.365671,3.92293711 138.589819,3.92293711 C135.346595,3.92293711 132.121593,4.75172664 132.121593,6.98024961 C132.121593,8.01163214 132.741085,9.11668484 137.587699,9.68762874 L143.327111,10.5900884 C148.793218,11.418878 152,13.5368957 152,17.6071731 C152,23.3350296 146.533893,25.5267176 140.029227,25.5267176 C129.588963,25.5267176 127.038113,20.3329698 126.473282,18.4912153 L131.046592,17.0730644 C131.921169,18.9148189 133.743204,21.419605 140.156769,21.419605 C144.055925,21.419605 147.262708,20.1303768 147.262708,18.0307767 C147.262708,16.4652854 145.440672,15.4339029 141.960584,14.9918817 L136.148291,14.1999273 C130.536422,13.4448079 127.420741,10.9768569 127.420741,7.27493032 C127.420741,0 136.858885,0 138.717361,0 C149.212286,0 150.97966,4.84381438 151.599152,6.50139343 L147.098724,7.9563795 Z" id="Path" fill="#000000"></path>
                </g>
            </g>
            <g id="Group" fill="#232323">
                <g id="line1">
                    <path d="M44.4035088,25.2046784 C41.4561404,24.0116959 37.877193,23.4152047 33.6666667,23.4152047 C27.2105263,23.4152047 21.4385965,25.0643275 16.3508772,28.3625731 C11.2631579,31.6608187 7.29824561,36.2923977 4.45614035,42.2573099 C1.61403509,48.2222222 0.19298246,55.0643275 0.19298246,62.7836257 C0.19298246,70.7134503 1.57894737,77.5380117 4.35087719,83.2573099 C7.12280702,88.9766082 11.0175439,93.3450292 16.0350877,96.3625731 C21.0526316,99.380117 26.8947368,100.888889 33.5614035,100.888889 C37.6315789,100.888889 41.1052632,100.309942 43.9824561,99.1520468 C46.8596491,97.994152 49.877193,96.2923977 53.0350877,94.0467836 C53.9473684,93.4853801 54.6842105,93.2046784 55.245614,93.2046784 C55.9473684,93.2046784 56.4912281,93.6783626 56.877193,94.625731 C57.2631579,95.5730994 57.5614035,97.1695906 57.7719298,99.4152047 L60.1929825,99.4152047 C59.9122807,94.6432749 59.7719298,86.2222222 59.7719298,74.1520468 L57.3508772,74.1520468 C56.7894737,78.7836257 56.1929825,82.2222222 55.5614035,84.4678363 C54.9298246,86.7134503 53.9122807,88.8187135 52.5087719,90.7836257 C50.6140351,93.4502924 48.0175439,95.4502924 44.7192982,96.7836257 C41.4210526,98.1169591 38.0175439,98.7836257 34.5087719,98.7836257 C29.9473684,98.7836257 25.8596491,97.3625731 22.245614,94.5204678 C18.6315789,91.6783626 15.8070175,87.5204678 13.7719298,82.0467836 C11.7368421,76.5730994 10.7192982,70.0116959 10.7192982,62.3625731 C10.7192982,54.8538012 11.6666667,48.3099415 13.5614035,42.7309942 C15.4561404,37.1520468 18.1052632,32.8538012 21.5087719,29.8362573 C24.9122807,26.8187135 28.8947368,25.3099415 33.4561404,25.3099415 C37.245614,25.3099415 40.7719298,25.994152 44.0350877,27.3625731 C47.2982456,28.7309942 49.9824561,30.7836257 52.0877193,33.5204678 C53.5614035,35.3450292 54.6140351,37.2573099 55.245614,39.2573099 C55.877193,41.2573099 56.5789474,44.5380117 57.3508772,49.0994152 L59.7719298,49.0994152 C59.7719298,37.5204678 59.9122807,29.4502924 60.1929825,24.8888889 L57.7719298,24.8888889 C57.3508772,29.0994152 56.4385965,31.2046784 55.0350877,31.2046784 C54.4736842,31.2046784 53.8070175,30.8888889 53.0350877,30.2573099 C50.2280702,28.0818713 47.3508772,26.3976608 44.4035088,25.2046784 Z" id="Path"></path>
                    <path d="M95.119883,26.994152 L95.119883,24.8888889 C91.8216374,25.0994152 87.3654971,25.2046784 81.751462,25.2046784 C75.7163743,25.2046784 71.2251462,25.0994152 68.2777778,24.8888889 L68.2777778,26.994152 C70.8040936,27.1345029 72.6461988,27.4152047 73.8040936,27.8362573 C74.9619883,28.2573099 75.751462,29.0643275 76.1725146,30.2573099 C76.5935673,31.4502924 76.8040936,33.380117 76.8040936,36.0467836 L76.8040936,88.2573099 C76.8040936,90.9239766 76.5935673,92.8538012 76.1725146,94.0467836 C75.751462,95.2397661 74.9619883,96.0467836 73.8040936,96.4678363 C72.6461988,96.8888889 70.8040936,97.1695906 68.2777778,97.3099415 L68.2777778,99.4152047 C75.1549708,99.2046784 85.3304094,99.0994152 98.8040936,99.0994152 C110.102339,99.0994152 118.137427,99.2046784 122.909357,99.4152047 C122.418129,94.4327485 122.172515,89.9415205 122.172515,85.9415205 C122.172515,82.3625731 122.277778,79.4853801 122.488304,77.3099415 L120.067251,77.3099415 C119.576023,82.502924 118.804094,86.4678363 117.751462,89.2046784 C116.69883,91.9415205 115.032164,93.9239766 112.751462,95.1520468 C110.47076,96.380117 107.154971,96.994152 102.804094,96.994152 L95.119883,96.994152 C92.5935673,96.994152 90.751462,96.8011696 89.5935673,96.4152047 C88.4356725,96.0292398 87.6461988,95.2397661 87.2251462,94.0467836 C86.8040936,92.8538012 86.5935673,90.9239766 86.5935673,88.2573099 L86.5935673,36.0467836 C86.5935673,33.380117 86.8040936,31.4502924 87.2251462,30.2573099 C87.6461988,29.0643275 88.4356725,28.2573099 89.5935673,27.8362573 C90.751462,27.4152047 92.5935673,27.1345029 95.119883,26.994152 Z" id="Path"></path>
                    <path d="M181.624269,99.4152047 C181.133041,94.4327485 180.887427,89.9415205 180.887427,85.9415205 C180.887427,82.7836257 180.99269,80.2573099 181.203216,78.3625731 L178.782164,78.3625731 C178.290936,83.3450292 177.519006,87.1169591 176.466374,89.6783626 C175.413743,92.2397661 173.747076,94.0994152 171.466374,95.2573099 C169.185673,96.4152047 165.869883,96.994152 161.519006,96.994152 L153.834795,96.994152 C151.30848,96.994152 149.466374,96.8011696 148.30848,96.4152047 C147.150585,96.0292398 146.361111,95.2397661 145.940058,94.0467836 C145.519006,92.8538012 145.30848,90.9239766 145.30848,88.2573099 L145.30848,62.994152 L152.255848,62.994152 C155.062865,62.994152 157.255848,63.7309942 158.834795,65.2046784 C160.413743,66.6783626 161.378655,68.871345 161.729532,71.7836257 C162.080409,74.6959064 162.290936,76.3976608 162.361111,76.8888889 L164.782164,76.8888889 C164.361111,70.502924 164.150585,65.5204678 164.150585,61.9415205 L164.150585,56.8888889 C164.150585,53.2397661 164.255848,49.9415205 164.466374,46.994152 L162.045322,46.994152 L161.729532,49.0994152 C161.44883,51.4853801 161.080409,53.4678363 160.624269,55.0467836 C160.168129,56.625731 159.273392,57.994152 157.940058,59.1520468 C156.606725,60.3099415 154.711988,60.8888889 152.255848,60.8888889 L145.30848,60.8888889 L145.30848,36.0467836 C145.30848,33.380117 145.519006,31.4502924 145.940058,30.2573099 C146.361111,29.0643275 147.150585,28.2748538 148.30848,27.8888889 C149.466374,27.502924 151.30848,27.3099415 153.834795,27.3099415 L162.571637,27.3099415 C166.290936,27.3099415 169.062865,27.8187135 170.887427,28.8362573 C172.711988,29.8538012 174.010234,31.4678363 174.782164,33.6783626 C175.554094,35.8888889 176.185673,39.2748538 176.676901,43.8362573 L179.097953,43.8362573 C178.887427,42.2222222 178.782164,40.0467836 178.782164,37.3099415 C178.782164,33.6608187 179.027778,29.5204678 179.519006,24.8888889 C175.168129,25.0994152 167.834795,25.2046784 157.519006,25.2046784 C144.045322,25.2046784 133.869883,25.0994152 126.99269,24.8888889 L126.99269,26.994152 C129.519006,27.1345029 131.361111,27.4152047 132.519006,27.8362573 C133.676901,28.2573099 134.466374,29.0643275 134.887427,30.2573099 C135.30848,31.4502924 135.519006,33.380117 135.519006,36.0467836 L135.519006,88.2573099 C135.519006,90.9239766 135.30848,92.8538012 134.887427,94.0467836 C134.466374,95.2397661 133.676901,96.0467836 132.519006,96.4678363 C131.361111,96.8888889 129.519006,97.1695906 126.99269,97.3099415 L126.99269,99.4152047 C133.869883,99.2046784 144.045322,99.0994152 157.519006,99.0994152 C168.817251,99.0994152 176.852339,99.2046784 181.624269,99.4152047 Z M169.203216,0.888888889 C168.22076,0.888888889 167.168129,1.23976608 166.045322,1.94152047 C164.361111,3.06432749 162.22076,4.85380117 159.624269,7.30994152 C159.133041,7.73099415 157.852339,8.87134503 155.782164,10.7309942 C153.711988,12.5906433 151.238304,14.6081871 148.361111,16.7836257 L149.097953,18.1520468 C152.887427,16.2573099 157.413743,14.2573099 162.676901,12.1520468 C166.255848,10.8187135 168.782164,9.69590643 170.255848,8.78362573 C172.150585,7.59064327 173.097953,6.22222222 173.097953,4.67836257 C173.097953,3.97660819 172.887427,3.30994152 172.466374,2.67836257 C171.624269,1.48538012 170.53655,0.888888889 169.203216,0.888888889 Z" id="Shape"></path>
                    <path d="M265.23538,27.8362573 C266.393275,27.4152047 268.23538,27.1345029 270.761696,26.994152 L270.761696,24.8888889 C267.533626,25.0994152 263.077485,25.2046784 257.393275,25.2046784 L252.445906,25.2046784 L229.814327,85.8362573 L206.656433,24.8888889 C204.340643,25.0994152 201.358187,25.2046784 197.709064,25.2046784 C193.498538,25.2046784 190.23538,25.0994152 187.919591,24.8888889 L187.919591,26.994152 C190.445906,27.1345029 192.288012,27.4152047 193.445906,27.8362573 C194.603801,28.2573099 195.393275,29.0643275 195.814327,30.2573099 C196.23538,31.4502924 196.445906,33.380117 196.445906,36.0467836 L196.445906,87.2046784 C196.445906,89.871345 196.23538,91.8888889 195.814327,93.2573099 C195.393275,94.625731 194.586257,95.6081871 193.393275,96.2046784 C192.200292,96.8011696 190.375731,97.1695906 187.919591,97.3099415 L187.919591,99.4152047 C190.23538,99.2046784 193.498538,99.0994152 197.709064,99.0994152 C202.340643,99.0994152 205.919591,99.2046784 208.445906,99.4152047 L208.445906,97.3099415 C205.638889,97.1695906 203.568713,96.8011696 202.23538,96.2046784 C200.902047,95.6081871 200.00731,94.6432749 199.55117,93.3099415 C199.095029,91.9766082 198.866959,89.9415205 198.866959,87.2046784 L198.866959,31.625731 L225.393275,99.9415205 L227.077485,99.9415205 L252.445906,31.8362573 L252.445906,88.2573099 C252.445906,90.9239766 252.23538,92.8538012 251.814327,94.0467836 C251.393275,95.2397661 250.603801,96.0467836 249.445906,96.4678363 C248.288012,96.8888889 246.445906,97.1695906 243.919591,97.3099415 L243.919591,99.4152047 C246.866959,99.2046784 251.358187,99.0994152 257.393275,99.0994152 C263.077485,99.0994152 267.533626,99.2046784 270.761696,99.4152047 L270.761696,97.3099415 C268.23538,97.1695906 266.393275,96.8888889 265.23538,96.4678363 C264.077485,96.0467836 263.288012,95.2397661 262.866959,94.0467836 C262.445906,92.8538012 262.23538,90.9239766 262.23538,88.2573099 L262.23538,36.0467836 C262.23538,33.380117 262.445906,31.4502924 262.866959,30.2573099 C263.288012,29.0643275 264.077485,28.2573099 265.23538,27.8362573 Z" id="Path"></path>
                    <path d="M331.055556,99.4152047 C330.564327,94.4327485 330.318713,89.9415205 330.318713,85.9415205 C330.318713,82.7836257 330.423977,80.2573099 330.634503,78.3625731 L328.21345,78.3625731 C327.722222,83.3450292 326.950292,87.1169591 325.897661,89.6783626 C324.845029,92.2397661 323.178363,94.0994152 320.897661,95.2573099 C318.616959,96.4152047 315.30117,96.994152 310.950292,96.994152 L303.266082,96.994152 C300.739766,96.994152 298.897661,96.8011696 297.739766,96.4152047 C296.581871,96.0292398 295.792398,95.2397661 295.371345,94.0467836 C294.950292,92.8538012 294.739766,90.9239766 294.739766,88.2573099 L294.739766,62.994152 L301.687135,62.994152 C304.494152,62.994152 306.687135,63.7309942 308.266082,65.2046784 C309.845029,66.6783626 310.809942,68.871345 311.160819,71.7836257 C311.511696,74.6959064 311.722222,76.3976608 311.792398,76.8888889 L314.21345,76.8888889 C313.792398,70.502924 313.581871,65.5204678 313.581871,61.9415205 L313.581871,56.8888889 C313.581871,53.2397661 313.687135,49.9415205 313.897661,46.994152 L311.476608,46.994152 L311.160819,49.0994152 C310.880117,51.4853801 310.511696,53.4678363 310.055556,55.0467836 C309.599415,56.625731 308.704678,57.994152 307.371345,59.1520468 C306.038012,60.3099415 304.143275,60.8888889 301.687135,60.8888889 L294.739766,60.8888889 L294.739766,36.0467836 C294.739766,33.380117 294.950292,31.4502924 295.371345,30.2573099 C295.792398,29.0643275 296.581871,28.2748538 297.739766,27.8888889 C298.897661,27.502924 300.739766,27.3099415 303.266082,27.3099415 L312.002924,27.3099415 C315.722222,27.3099415 318.494152,27.8187135 320.318713,28.8362573 C322.143275,29.8538012 323.44152,31.4678363 324.21345,33.6783626 C324.98538,35.8888889 325.616959,39.2748538 326.108187,43.8362573 L328.52924,43.8362573 C328.318713,42.2222222 328.21345,40.0467836 328.21345,37.3099415 C328.21345,33.6608187 328.459064,29.5204678 328.950292,24.8888889 C324.599415,25.0994152 317.266082,25.2046784 306.950292,25.2046784 C293.476608,25.2046784 283.30117,25.0994152 276.423977,24.8888889 L276.423977,26.994152 C278.950292,27.1345029 280.792398,27.4152047 281.950292,27.8362573 C283.108187,28.2573099 283.897661,29.0643275 284.318713,30.2573099 C284.739766,31.4502924 284.950292,33.380117 284.950292,36.0467836 L284.950292,88.2573099 C284.950292,90.9239766 284.739766,92.8538012 284.318713,94.0467836 C283.897661,95.2397661 283.108187,96.0467836 281.950292,96.4678363 C280.792398,96.8888889 278.950292,97.1695906 276.423977,97.3099415 L276.423977,99.4152047 C283.30117,99.2046784 293.476608,99.0994152 306.950292,99.0994152 C318.248538,99.0994152 326.283626,99.2046784 331.055556,99.4152047 Z" id="Path"></path>
                    <path d="M403.45614,26.994152 L403.45614,24.8888889 C401.140351,25.0994152 397.877193,25.2046784 393.666667,25.2046784 C389.035088,25.2046784 385.45614,25.0994152 382.929825,24.8888889 L382.929825,26.994152 C385.736842,27.1345029 387.807018,27.502924 389.140351,28.0994152 C390.473684,28.6959064 391.368421,29.6608187 391.824561,30.994152 C392.280702,32.3274854 392.508772,34.3625731 392.508772,37.0994152 L392.508772,82.1520468 L355.350877,24.8888889 C353.035088,25.0994152 350.298246,25.2046784 347.140351,25.2046784 C342.929825,25.2046784 339.666667,25.0994152 337.350877,24.8888889 L337.350877,26.994152 C339.877193,27.1345029 341.719298,27.4152047 342.877193,27.8362573 C344.035088,28.2573099 344.824561,29.0643275 345.245614,30.2573099 C345.666667,31.4502924 345.877193,33.380117 345.877193,36.0467836 L345.877193,87.2046784 C345.877193,89.871345 345.666667,91.8888889 345.245614,93.2573099 C344.824561,94.625731 344.017544,95.6081871 342.824561,96.2046784 C341.631579,96.8011696 339.807018,97.1695906 337.350877,97.3099415 L337.350877,99.4152047 C339.666667,99.2046784 342.929825,99.0994152 347.140351,99.0994152 C351.77193,99.0994152 355.350877,99.2046784 357.877193,99.4152047 L357.877193,97.3099415 C355.070175,97.1695906 353,96.8011696 351.666667,96.2046784 C350.333333,95.6081871 349.438596,94.6432749 348.982456,93.3099415 C348.526316,91.9766082 348.298246,89.9415205 348.298246,87.2046784 L348.298246,31.625731 L392.508772,99.9415205 L394.929825,99.9415205 L394.929825,37.0994152 C394.929825,34.4327485 395.140351,32.4152047 395.561404,31.0467836 C395.982456,29.6783626 396.789474,28.6959064 397.982456,28.0994152 C399.175439,27.502924 401,27.1345029 403.45614,26.994152 Z" id="Path"></path>
                    <path d="M465.646199,38.3625731 C465.646199,34.3625731 465.891813,29.871345 466.383041,24.8888889 C460.55848,25.0994152 450.69883,25.2046784 436.804094,25.2046784 C422.839181,25.2046784 412.944444,25.0994152 407.119883,24.8888889 C407.611111,29.871345 407.856725,34.3625731 407.856725,38.3625731 C407.856725,41.871345 407.751462,44.748538 407.540936,46.994152 L409.961988,46.994152 C410.523392,41.5906433 411.225146,37.5730994 412.067251,34.9415205 C412.909357,32.3099415 414.383041,30.380117 416.488304,29.1520468 C418.593567,27.9239766 421.821637,27.3099415 426.172515,27.3099415 L431.856725,27.3099415 L431.856725,87.2046784 C431.856725,90.1520468 431.576023,92.2923977 431.01462,93.625731 C430.453216,94.9590643 429.47076,95.871345 428.067251,96.3625731 C426.663743,96.8538012 424.383041,97.1695906 421.225146,97.3099415 L421.225146,99.4152047 C424.593567,99.2046784 429.78655,99.0994152 436.804094,99.0994152 C443.47076,99.0994152 448.628655,99.2046784 452.277778,99.4152047 L452.277778,97.3099415 C449.119883,97.1695906 446.839181,96.8538012 445.435673,96.3625731 C444.032164,95.871345 443.049708,94.9590643 442.488304,93.625731 C441.926901,92.2923977 441.646199,90.1520468 441.646199,87.2046784 L441.646199,27.3099415 L447.330409,27.3099415 C451.681287,27.3099415 454.909357,27.9239766 457.01462,29.1520468 C459.119883,30.380117 460.593567,32.3099415 461.435673,34.9415205 C462.277778,37.5730994 462.979532,41.5906433 463.540936,46.994152 L465.961988,46.994152 C465.751462,44.748538 465.646199,41.871345 465.646199,38.3625731 Z" id="Path"></path>
                </g>
            </g>
        </g>
    </g>
</svg>