<?xml version="1.0" encoding="UTF-8"?>
<svg width="467px" height="135px" viewBox="0 0 467 135" version="1.1" xmlns="http://www.w3.org/2000/svg" xmlns:xlink="http://www.w3.org/1999/xlink">
    <!-- Generator: Sketch 52.4 (67378) - http://www.bohemiancoding.com/sketch -->
    <title>Clement</title>
    <desc>Created with Sketch.</desc>
    <g id="Page-1" stroke="none" stroke-width="1" fill="none" fill-rule="evenodd">
        <g id="Clement" transform="translate(-1.000000, 0.000000)">
            <g id="Paris" transform="translate(186.000000, 118.000000)">
                <path d="M0.0118959108,16 L3.0929368,16 L3.0929368,9.77710387 L8.86245353,9.77710387 C11.5509294,9.77710387 16,9.77710387 16,4.92494314 C16,0.0727824109 11.5866171,0 8.86245353,0 L0,0 L0.0118959108,16 Z" id="Path" fill="#000000"></path>
                <path d="M3,7 L3,3 L9.59367397,3 C11.406326,3 13,3.13186813 13,4.98901099 C13,6.84615385 11.406326,7 9.59367397,7 L3,7 Z" id="Path" fill="#FFFFFF"></path>
                <polygon id="Path" fill="#000000" points="20 16 23.2811721 16 24.963217 12.3663891 34.0841646 12.3663891 35.7425187 16 39 16 31.3241895 0 27.7705736 0"></polygon>
                <polygon id="Path" fill="#FFFFFF" points="26 10 29.5 3 33 10"></polygon>
                <path d="M47,16 L50.1913357,16 L50.1913357,9.65787491 L55.2851986,9.65787491 L60.0722022,15.9638282 L64,15.9638282 L58.9797834,9.44084401 C60.225606,9.43528481 61.4156257,8.93257154 62.2766703,8.04810337 C63.1377148,7.1636352 63.5958279,5.97338043 63.5458484,4.75056518 C63.5458484,0.856066315 60.7718412,0 56.8808664,0 L47.0613718,0 L47,16 Z" id="Path" fill="#000000"></path>
                <path d="M50,7 L50,2 L56.1111111,2 C58.6835749,2 60,2.40897098 60,4.46701847 C60,6.52506596 58.6835749,6.93403694 56.1111111,6.93403694 L50,7 Z" id="Path" fill="#FFFFFF"></path>
                <polygon id="Path" fill="#000000" points="73 0 76 0 76 16 73 16"></polygon>
                <path d="M97.7359029,5.2987013 C97.226267,3.87590188 95.9157744,2.61255411 92.0692363,2.61255411 C89.9093505,2.61255411 87.7615989,3.16450216 87.7615989,4.64862915 C87.7615989,5.33549784 88.1741613,6.07142857 91.4018558,6.45165945 L95.2241256,7.05266955 C98.8643826,7.6046176 101,9.01515152 101,11.7258297 C101,15.540404 97.359743,17 93.0278373,17 C86.0749465,17 84.3761599,13.5411255 84,12.3145743 L87.0456817,11.3701299 C87.6281228,12.5966811 88.8415418,14.2647908 93.1127766,14.2647908 C95.7094932,14.2647908 97.8451106,13.4062049 97.8451106,12.0079365 C97.8451106,10.965368 96.6316916,10.2784993 94.3140614,9.98412698 L90.4432548,9.45670996 C86.7059243,8.95382395 84.6309779,7.31024531 84.6309779,4.84487734 C84.6309779,0 90.9164882,0 92.1541756,0 C99.143469,0 100.320485,3.22582973 100.733048,4.32972583 L97.7359029,5.2987013 Z" id="Path" fill="#000000"></path>
            </g>
            <g id="Group" fill="#232323">
                <g id="line1">
                    <path d="M45.4035088,25.2046784 C42.4561404,24.0116959 38.877193,23.4152047 34.6666667,23.4152047 C28.2105263,23.4152047 22.4385965,25.0643275 17.3508772,28.3625731 C12.2631579,31.6608187 8.29824561,36.2923977 5.45614035,42.2573099 C2.61403509,48.2222222 1.19298246,55.0643275 1.19298246,62.7836257 C1.19298246,70.7134503 2.57894737,77.5380117 5.35087719,83.2573099 C8.12280702,88.9766082 12.0175439,93.3450292 17.0350877,96.3625731 C22.0526316,99.380117 27.8947368,100.888889 34.5614035,100.888889 C38.6315789,100.888889 42.1052632,100.309942 44.9824561,99.1520468 C47.8596491,97.994152 50.877193,96.2923977 54.0350877,94.0467836 C54.9473684,93.4853801 55.6842105,93.2046784 56.245614,93.2046784 C56.9473684,93.2046784 57.4912281,93.6783626 57.877193,94.625731 C58.2631579,95.5730994 58.5614035,97.1695906 58.7719298,99.4152047 L61.1929825,99.4152047 C60.9122807,94.6432749 60.7719298,86.2222222 60.7719298,74.1520468 L58.3508772,74.1520468 C57.7894737,78.7836257 57.1929825,82.2222222 56.5614035,84.4678363 C55.9298246,86.7134503 54.9122807,88.8187135 53.5087719,90.7836257 C51.6140351,93.4502924 49.0175439,95.4502924 45.7192982,96.7836257 C42.4210526,98.1169591 39.0175439,98.7836257 35.5087719,98.7836257 C30.9473684,98.7836257 26.8596491,97.3625731 23.245614,94.5204678 C19.6315789,91.6783626 16.8070175,87.5204678 14.7719298,82.0467836 C12.7368421,76.5730994 11.7192982,70.0116959 11.7192982,62.3625731 C11.7192982,54.8538012 12.6666667,48.3099415 14.5614035,42.7309942 C16.4561404,37.1520468 19.1052632,32.8538012 22.5087719,29.8362573 C25.9122807,26.8187135 29.8947368,25.3099415 34.4561404,25.3099415 C38.245614,25.3099415 41.7719298,25.994152 45.0350877,27.3625731 C48.2982456,28.7309942 50.9824561,30.7836257 53.0877193,33.5204678 C54.5614035,35.3450292 55.6140351,37.2573099 56.245614,39.2573099 C56.877193,41.2573099 57.5789474,44.5380117 58.3508772,49.0994152 L60.7719298,49.0994152 C60.7719298,37.5204678 60.9122807,29.4502924 61.1929825,24.8888889 L58.7719298,24.8888889 C58.3508772,29.0994152 57.4385965,31.2046784 56.0350877,31.2046784 C55.4736842,31.2046784 54.8070175,30.8888889 54.0350877,30.2573099 C51.2280702,28.0818713 48.3508772,26.3976608 45.4035088,25.2046784 Z" id="Path"></path>
                    <path d="M96.119883,26.994152 L96.119883,24.8888889 C92.8216374,25.0994152 88.3654971,25.2046784 82.751462,25.2046784 C76.7163743,25.2046784 72.2251462,25.0994152 69.2777778,24.8888889 L69.2777778,26.994152 C71.8040936,27.1345029 73.6461988,27.4152047 74.8040936,27.8362573 C75.9619883,28.2573099 76.751462,29.0643275 77.1725146,30.2573099 C77.5935673,31.4502924 77.8040936,33.380117 77.8040936,36.0467836 L77.8040936,88.2573099 C77.8040936,90.9239766 77.5935673,92.8538012 77.1725146,94.0467836 C76.751462,95.2397661 75.9619883,96.0467836 74.8040936,96.4678363 C73.6461988,96.8888889 71.8040936,97.1695906 69.2777778,97.3099415 L69.2777778,99.4152047 C76.1549708,99.2046784 86.3304094,99.0994152 99.8040936,99.0994152 C111.102339,99.0994152 119.137427,99.2046784 123.909357,99.4152047 C123.418129,94.4327485 123.172515,89.9415205 123.172515,85.9415205 C123.172515,82.3625731 123.277778,79.4853801 123.488304,77.3099415 L121.067251,77.3099415 C120.576023,82.502924 119.804094,86.4678363 118.751462,89.2046784 C117.69883,91.9415205 116.032164,93.9239766 113.751462,95.1520468 C111.47076,96.380117 108.154971,96.994152 103.804094,96.994152 L96.119883,96.994152 C93.5935673,96.994152 91.751462,96.8011696 90.5935673,96.4152047 C89.4356725,96.0292398 88.6461988,95.2397661 88.2251462,94.0467836 C87.8040936,92.8538012 87.5935673,90.9239766 87.5935673,88.2573099 L87.5935673,36.0467836 C87.5935673,33.380117 87.8040936,31.4502924 88.2251462,30.2573099 C88.6461988,29.0643275 89.4356725,28.2573099 90.5935673,27.8362573 C91.751462,27.4152047 93.5935673,27.1345029 96.119883,26.994152 Z" id="Path"></path>
                    <path d="M182.624269,99.4152047 C182.133041,94.4327485 181.887427,89.9415205 181.887427,85.9415205 C181.887427,82.7836257 181.99269,80.2573099 182.203216,78.3625731 L179.782164,78.3625731 C179.290936,83.3450292 178.519006,87.1169591 177.466374,89.6783626 C176.413743,92.2397661 174.747076,94.0994152 172.466374,95.2573099 C170.185673,96.4152047 166.869883,96.994152 162.519006,96.994152 L154.834795,96.994152 C152.30848,96.994152 150.466374,96.8011696 149.30848,96.4152047 C148.150585,96.0292398 147.361111,95.2397661 146.940058,94.0467836 C146.519006,92.8538012 146.30848,90.9239766 146.30848,88.2573099 L146.30848,62.994152 L153.255848,62.994152 C156.062865,62.994152 158.255848,63.7309942 159.834795,65.2046784 C161.413743,66.6783626 162.378655,68.871345 162.729532,71.7836257 C163.080409,74.6959064 163.290936,76.3976608 163.361111,76.8888889 L165.782164,76.8888889 C165.361111,70.502924 165.150585,65.5204678 165.150585,61.9415205 L165.150585,56.8888889 C165.150585,53.2397661 165.255848,49.9415205 165.466374,46.994152 L163.045322,46.994152 L162.729532,49.0994152 C162.44883,51.4853801 162.080409,53.4678363 161.624269,55.0467836 C161.168129,56.625731 160.273392,57.994152 158.940058,59.1520468 C157.606725,60.3099415 155.711988,60.8888889 153.255848,60.8888889 L146.30848,60.8888889 L146.30848,36.0467836 C146.30848,33.380117 146.519006,31.4502924 146.940058,30.2573099 C147.361111,29.0643275 148.150585,28.2748538 149.30848,27.8888889 C150.466374,27.502924 152.30848,27.3099415 154.834795,27.3099415 L163.571637,27.3099415 C167.290936,27.3099415 170.062865,27.8187135 171.887427,28.8362573 C173.711988,29.8538012 175.010234,31.4678363 175.782164,33.6783626 C176.554094,35.8888889 177.185673,39.2748538 177.676901,43.8362573 L180.097953,43.8362573 C179.887427,42.2222222 179.782164,40.0467836 179.782164,37.3099415 C179.782164,33.6608187 180.027778,29.5204678 180.519006,24.8888889 C176.168129,25.0994152 168.834795,25.2046784 158.519006,25.2046784 C145.045322,25.2046784 134.869883,25.0994152 127.99269,24.8888889 L127.99269,26.994152 C130.519006,27.1345029 132.361111,27.4152047 133.519006,27.8362573 C134.676901,28.2573099 135.466374,29.0643275 135.887427,30.2573099 C136.30848,31.4502924 136.519006,33.380117 136.519006,36.0467836 L136.519006,88.2573099 C136.519006,90.9239766 136.30848,92.8538012 135.887427,94.0467836 C135.466374,95.2397661 134.676901,96.0467836 133.519006,96.4678363 C132.361111,96.8888889 130.519006,97.1695906 127.99269,97.3099415 L127.99269,99.4152047 C134.869883,99.2046784 145.045322,99.0994152 158.519006,99.0994152 C169.817251,99.0994152 177.852339,99.2046784 182.624269,99.4152047 Z M170.203216,0.888888889 C169.22076,0.888888889 168.168129,1.23976608 167.045322,1.94152047 C165.361111,3.06432749 163.22076,4.85380117 160.624269,7.30994152 C160.133041,7.73099415 158.852339,8.87134503 156.782164,10.7309942 C154.711988,12.5906433 152.238304,14.6081871 149.361111,16.7836257 L150.097953,18.1520468 C153.887427,16.2573099 158.413743,14.2573099 163.676901,12.1520468 C167.255848,10.8187135 169.782164,9.69590643 171.255848,8.78362573 C173.150585,7.59064327 174.097953,6.22222222 174.097953,4.67836257 C174.097953,3.97660819 173.887427,3.30994152 173.466374,2.67836257 C172.624269,1.48538012 171.53655,0.888888889 170.203216,0.888888889 Z" id="Shape" fill-rule="nonzero"></path>
                    <path d="M266.23538,27.8362573 C267.393275,27.4152047 269.23538,27.1345029 271.761696,26.994152 L271.761696,24.8888889 C268.533626,25.0994152 264.077485,25.2046784 258.393275,25.2046784 L253.445906,25.2046784 L230.814327,85.8362573 L207.656433,24.8888889 C205.340643,25.0994152 202.358187,25.2046784 198.709064,25.2046784 C194.498538,25.2046784 191.23538,25.0994152 188.919591,24.8888889 L188.919591,26.994152 C191.445906,27.1345029 193.288012,27.4152047 194.445906,27.8362573 C195.603801,28.2573099 196.393275,29.0643275 196.814327,30.2573099 C197.23538,31.4502924 197.445906,33.380117 197.445906,36.0467836 L197.445906,87.2046784 C197.445906,89.871345 197.23538,91.8888889 196.814327,93.2573099 C196.393275,94.625731 195.586257,95.6081871 194.393275,96.2046784 C193.200292,96.8011696 191.375731,97.1695906 188.919591,97.3099415 L188.919591,99.4152047 C191.23538,99.2046784 194.498538,99.0994152 198.709064,99.0994152 C203.340643,99.0994152 206.919591,99.2046784 209.445906,99.4152047 L209.445906,97.3099415 C206.638889,97.1695906 204.568713,96.8011696 203.23538,96.2046784 C201.902047,95.6081871 201.00731,94.6432749 200.55117,93.3099415 C200.095029,91.9766082 199.866959,89.9415205 199.866959,87.2046784 L199.866959,31.625731 L226.393275,99.9415205 L228.077485,99.9415205 L253.445906,31.8362573 L253.445906,88.2573099 C253.445906,90.9239766 253.23538,92.8538012 252.814327,94.0467836 C252.393275,95.2397661 251.603801,96.0467836 250.445906,96.4678363 C249.288012,96.8888889 247.445906,97.1695906 244.919591,97.3099415 L244.919591,99.4152047 C247.866959,99.2046784 252.358187,99.0994152 258.393275,99.0994152 C264.077485,99.0994152 268.533626,99.2046784 271.761696,99.4152047 L271.761696,97.3099415 C269.23538,97.1695906 267.393275,96.8888889 266.23538,96.4678363 C265.077485,96.0467836 264.288012,95.2397661 263.866959,94.0467836 C263.445906,92.8538012 263.23538,90.9239766 263.23538,88.2573099 L263.23538,36.0467836 C263.23538,33.380117 263.445906,31.4502924 263.866959,30.2573099 C264.288012,29.0643275 265.077485,28.2573099 266.23538,27.8362573 Z" id="Path"></path>
                    <path d="M332.055556,99.4152047 C331.564327,94.4327485 331.318713,89.9415205 331.318713,85.9415205 C331.318713,82.7836257 331.423977,80.2573099 331.634503,78.3625731 L329.21345,78.3625731 C328.722222,83.3450292 327.950292,87.1169591 326.897661,89.6783626 C325.845029,92.2397661 324.178363,94.0994152 321.897661,95.2573099 C319.616959,96.4152047 316.30117,96.994152 311.950292,96.994152 L304.266082,96.994152 C301.739766,96.994152 299.897661,96.8011696 298.739766,96.4152047 C297.581871,96.0292398 296.792398,95.2397661 296.371345,94.0467836 C295.950292,92.8538012 295.739766,90.9239766 295.739766,88.2573099 L295.739766,62.994152 L302.687135,62.994152 C305.494152,62.994152 307.687135,63.7309942 309.266082,65.2046784 C310.845029,66.6783626 311.809942,68.871345 312.160819,71.7836257 C312.511696,74.6959064 312.722222,76.3976608 312.792398,76.8888889 L315.21345,76.8888889 C314.792398,70.502924 314.581871,65.5204678 314.581871,61.9415205 L314.581871,56.8888889 C314.581871,53.2397661 314.687135,49.9415205 314.897661,46.994152 L312.476608,46.994152 L312.160819,49.0994152 C311.880117,51.4853801 311.511696,53.4678363 311.055556,55.0467836 C310.599415,56.625731 309.704678,57.994152 308.371345,59.1520468 C307.038012,60.3099415 305.143275,60.8888889 302.687135,60.8888889 L295.739766,60.8888889 L295.739766,36.0467836 C295.739766,33.380117 295.950292,31.4502924 296.371345,30.2573099 C296.792398,29.0643275 297.581871,28.2748538 298.739766,27.8888889 C299.897661,27.502924 301.739766,27.3099415 304.266082,27.3099415 L313.002924,27.3099415 C316.722222,27.3099415 319.494152,27.8187135 321.318713,28.8362573 C323.143275,29.8538012 324.44152,31.4678363 325.21345,33.6783626 C325.98538,35.8888889 326.616959,39.2748538 327.108187,43.8362573 L329.52924,43.8362573 C329.318713,42.2222222 329.21345,40.0467836 329.21345,37.3099415 C329.21345,33.6608187 329.459064,29.5204678 329.950292,24.8888889 C325.599415,25.0994152 318.266082,25.2046784 307.950292,25.2046784 C294.476608,25.2046784 284.30117,25.0994152 277.423977,24.8888889 L277.423977,26.994152 C279.950292,27.1345029 281.792398,27.4152047 282.950292,27.8362573 C284.108187,28.2573099 284.897661,29.0643275 285.318713,30.2573099 C285.739766,31.4502924 285.950292,33.380117 285.950292,36.0467836 L285.950292,88.2573099 C285.950292,90.9239766 285.739766,92.8538012 285.318713,94.0467836 C284.897661,95.2397661 284.108187,96.0467836 282.950292,96.4678363 C281.792398,96.8888889 279.950292,97.1695906 277.423977,97.3099415 L277.423977,99.4152047 C284.30117,99.2046784 294.476608,99.0994152 307.950292,99.0994152 C319.248538,99.0994152 327.283626,99.2046784 332.055556,99.4152047 Z" id="Path"></path>
                    <path d="M404.45614,26.994152 L404.45614,24.8888889 C402.140351,25.0994152 398.877193,25.2046784 394.666667,25.2046784 C390.035088,25.2046784 386.45614,25.0994152 383.929825,24.8888889 L383.929825,26.994152 C386.736842,27.1345029 388.807018,27.502924 390.140351,28.0994152 C391.473684,28.6959064 392.368421,29.6608187 392.824561,30.994152 C393.280702,32.3274854 393.508772,34.3625731 393.508772,37.0994152 L393.508772,82.1520468 L356.350877,24.8888889 C354.035088,25.0994152 351.298246,25.2046784 348.140351,25.2046784 C343.929825,25.2046784 340.666667,25.0994152 338.350877,24.8888889 L338.350877,26.994152 C340.877193,27.1345029 342.719298,27.4152047 343.877193,27.8362573 C345.035088,28.2573099 345.824561,29.0643275 346.245614,30.2573099 C346.666667,31.4502924 346.877193,33.380117 346.877193,36.0467836 L346.877193,87.2046784 C346.877193,89.871345 346.666667,91.8888889 346.245614,93.2573099 C345.824561,94.625731 345.017544,95.6081871 343.824561,96.2046784 C342.631579,96.8011696 340.807018,97.1695906 338.350877,97.3099415 L338.350877,99.4152047 C340.666667,99.2046784 343.929825,99.0994152 348.140351,99.0994152 C352.77193,99.0994152 356.350877,99.2046784 358.877193,99.4152047 L358.877193,97.3099415 C356.070175,97.1695906 354,96.8011696 352.666667,96.2046784 C351.333333,95.6081871 350.438596,94.6432749 349.982456,93.3099415 C349.526316,91.9766082 349.298246,89.9415205 349.298246,87.2046784 L349.298246,31.625731 L393.508772,99.9415205 L395.929825,99.9415205 L395.929825,37.0994152 C395.929825,34.4327485 396.140351,32.4152047 396.561404,31.0467836 C396.982456,29.6783626 397.789474,28.6959064 398.982456,28.0994152 C400.175439,27.502924 402,27.1345029 404.45614,26.994152 Z" id="Path"></path>
                    <path d="M466.646199,38.3625731 C466.646199,34.3625731 466.891813,29.871345 467.383041,24.8888889 C461.55848,25.0994152 451.69883,25.2046784 437.804094,25.2046784 C423.839181,25.2046784 413.944444,25.0994152 408.119883,24.8888889 C408.611111,29.871345 408.856725,34.3625731 408.856725,38.3625731 C408.856725,41.871345 408.751462,44.748538 408.540936,46.994152 L410.961988,46.994152 C411.523392,41.5906433 412.225146,37.5730994 413.067251,34.9415205 C413.909357,32.3099415 415.383041,30.380117 417.488304,29.1520468 C419.593567,27.9239766 422.821637,27.3099415 427.172515,27.3099415 L432.856725,27.3099415 L432.856725,87.2046784 C432.856725,90.1520468 432.576023,92.2923977 432.01462,93.625731 C431.453216,94.9590643 430.47076,95.871345 429.067251,96.3625731 C427.663743,96.8538012 425.383041,97.1695906 422.225146,97.3099415 L422.225146,99.4152047 C425.593567,99.2046784 430.78655,99.0994152 437.804094,99.0994152 C444.47076,99.0994152 449.628655,99.2046784 453.277778,99.4152047 L453.277778,97.3099415 C450.119883,97.1695906 447.839181,96.8538012 446.435673,96.3625731 C445.032164,95.871345 444.049708,94.9590643 443.488304,93.625731 C442.926901,92.2923977 442.646199,90.1520468 442.646199,87.2046784 L442.646199,27.3099415 L448.330409,27.3099415 C452.681287,27.3099415 455.909357,27.9239766 458.01462,29.1520468 C460.119883,30.380117 461.593567,32.3099415 462.435673,34.9415205 C463.277778,37.5730994 463.979532,41.5906433 464.540936,46.994152 L466.961988,46.994152 C466.751462,44.748538 466.646199,41.871345 466.646199,38.3625731 Z" id="Path"></path>
                </g>
            </g>
        </g>
    </g>
</svg>