<svg class="jsx-2263963463 artboard"><svg viewBox="0 0 41.74839931361205 50" xmlns="http://www.w3.org/2000/svg" xmlns:xlink="http://www.w3.org/1999/xlink" version="1.1" class="jsx-2263963463 artboard-inner" style="width: 41px; height: 49.1037px; max-height: 100%;"><g transform="translate(-12.35015808134208 -8.224357104443797) scale(0.6644871294147897)" id="lockup4-icon"><g fill="#232323"><path d="M68.7 87.623h5.242l-3.649-15.79h-5.242zM26.058 87.623H31.3l3.65-15.79h-5.242zM47.315 71.833h5.37V83.47h-5.37zM47.315 12.377h5.37v5.299h-5.37zM75.542 20.77H24.458v37.453h51.084V20.77zM48.639 34.899h-.55a6.499 6.499 0 0 0-6.504 6.245l.006.066c.005.068.009.138.009.208v.55h-3.285l-.03-.55c0-.071.004-.143.009-.213l.005-.087a6.5 6.5 0 0 0-6.503-6.22h-.55v-3.915h.55c3.5 0 6.357-2.743 6.504-6.245l-.006-.062a3.008 3.008 0 0 1-.009-.213v-.55h3.285l.03.55c0 .07-.004.14-.009.208l-.006.106c.147 3.462 3.004 6.205 6.504 6.205h.55v3.917zM70.394 46.34h-.55a6.499 6.499 0 0 0-6.504 6.245l.006.062c.005.07.009.142.009.213v.55H60.07l-.03-.55c0-.07.004-.14.009-.208l.005-.092a6.5 6.5 0 0 0-6.503-6.22H53v-3.915h.55c3.5 0 6.357-2.743 6.504-6.245l-.006-.066a2.844 2.844 0 0 1-.009-.208v-.55h3.285l.03.55c0 .071-.004.143-.009.213l-.006.104c.147 3.46 3.004 6.203 6.504 6.203h.55v3.914z"></path><path d="M64.933 44.382a9.907 9.907 0 0 1-3.236-3.031 9.917 9.917 0 0 1-3.236 3.031 9.93 9.93 0 0 1 3.236 3.032 9.93 9.93 0 0 1 3.236-3.032zM43.178 32.942a9.927 9.927 0 0 1-3.236-3.031 9.935 9.935 0 0 1-3.235 3.031 9.904 9.904 0 0 1 3.235 3.031 9.917 9.917 0 0 1 3.236-3.031zM18.586 63.075h62.828v3.907H18.586z"></path></g></g></svg></svg>